<svg width="63" height="63" viewBox="0 0 63 63" fill="none" xmlns="http://www.w3.org/2000/svg">
<path d="M58.8333 31.9011C58.8333 29.8699 58.651 27.9167 58.3125 26.0417H31.3333V37.1355H46.75C46.0729 40.7032 44.0416 43.724 40.9948 45.7553V52.9688H50.2916C55.7083 47.9688 58.8333 40.6251 58.8333 31.9011Z" fill="#4285F4"/>
<path d="M31.3333 59.8958C39.0677 59.8958 45.5521 57.3438 50.2916 52.9688L40.9948 45.7552C38.4427 47.474 35.1875 48.5156 31.3333 48.5156C23.8854 48.5156 17.5573 43.4896 15.2916 36.7188H5.76039V44.1146C10.4739 53.4635 20.1354 59.8958 31.3333 59.8958Z" fill="#34A853"/>
<path d="M15.2917 36.6926C14.7188 34.9739 14.3802 33.151 14.3802 31.2499C14.3802 29.3489 14.7188 27.526 15.2917 25.8072V18.4114H5.76043C3.80731 22.2655 2.68752 26.6145 2.68752 31.2499C2.68752 35.8853 3.80731 40.2343 5.76043 44.0885L13.1823 38.3072L15.2917 36.6926Z" fill="#FBBC05"/>
<path d="M31.3333 14.0105C35.5521 14.0105 39.3021 15.4688 42.2968 18.2813L50.5 10.0782C45.526 5.44279 39.0677 2.60425 31.3333 2.60425C20.1354 2.60425 10.4739 9.03654 5.76039 18.4115L15.2916 25.8074C17.5573 19.0365 23.8854 14.0105 31.3333 14.0105Z" fill="#EA4335"/>
</svg>
